<?xml version="1.0" standalone="no"?>
<!DOCTYPE svg PUBLIC "-//W3C//DTD SVG 20010904//EN"
 "http://www.w3.org/TR/2001/REC-SVG-20010904/DTD/svg10.dtd">
<svg version="1.0" xmlns="http://www.w3.org/2000/svg"
 width="1080.000000pt" height="1080.000000pt" viewBox="0 0 1080.000000 1080.000000"
 preserveAspectRatio="xMidYMid meet">
<metadata>
Created by potrace 1.11, written by Peter Selinger 2001-2013
</metadata>
<g transform="translate(0.000000,1080.000000) scale(0.100000,-0.100000)"
fill="#000000" stroke="none">
<path d="M2985 8640 c-658 -59 -1259 -299 -1770 -706 -140 -112 -385 -357
-498 -499 -770 -966 -932 -2252 -425 -3380 102 -227 259 -482 424 -690 112
-140 357 -385 499 -498 373 -297 796 -508 1250 -621 982 -245 2036 -12 2822
623 l113 91 112 -91 c895 -720 2100 -914 3178 -512 314 117 625 294 895 509
140 112 385 357 498 499 770 966 932 2252 425 3380 -102 227 -259 482 -424
690 -112 140 -357 385 -499 498 -373 297 -796 508 -1250 621 -982 245 -2036
12 -2822 -623 l-113 -91 -112 91 c-474 381 -1025 615 -1639 694 -139 19 -528
27 -664 15z m4820 -150 c425 -39 786 -143 1161 -334 765 -391 1336 -1089 1569
-1916 142 -507 151 -1077 25 -1580 -222 -886 -810 -1624 -1617 -2029 -417
-209 -830 -313 -1303 -328 -735 -23 -1445 214 -2028 677 l-102 81 105 112
c687 733 994 1712 849 2707 -94 648 -401 1276 -857 1756 l-96 101 87 70 c355
286 752 487 1172 593 193 49 320 70 560 93 81 8 373 6 475 -3z m-5116 -2804
c300 -790 548 -1436 551 -1436 3 0 246 644 540 1431 294 787 539 1433 544
1435 6 1 203 4 439 6 l427 3 0 -46 0 -45 -106 -13 c-193 -22 -257 -65 -286
-189 -19 -85 -19 -2873 0 -2949 32 -121 96 -162 286 -184 l106 -12 0 -46 0
-46 -640 0 -640 0 0 46 0 46 102 12 c172 21 238 57 275 151 17 42 18 129 21
1484 1 792 0 1438 -2 1435 -2 -2 -261 -695 -576 -1539 -315 -844 -583 -1565
-597 -1602 -25 -68 -26 -68 -63 -68 l-38 0 -54 138 c-29 75 -312 803 -628
1617 l-575 1481 -3 -1361 c-2 -875 1 -1390 8 -1445 12 -107 46 -178 103 -220
53 -39 112 -56 243 -71 l104 -12 0 -46 0 -46 -490 0 -490 0 0 46 0 46 88 12
c123 15 178 36 228 87 85 84 79 -32 79 1594 0 1349 -1 1438 -18 1486 -36 104
-101 137 -314 159 l-63 7 0 46 0 47 447 -2 447 -1 545 -1436z"/>
<path d="M7960 7193 c-700 -69 -1235 -584 -1394 -1342 -40 -190 -51 -310 -51
-556 1 -412 55 -669 205 -970 82 -166 164 -279 292 -401 241 -230 535 -355
927 -394 394 -39 672 33 983 254 65 46 131 86 147 88 76 11 120 -47 150 -199
l16 -83 47 0 47 0 3 628 3 627 28 56 c31 65 61 84 157 101 l60 10 0 50 0 50
-62 -8 c-79 -9 -943 -9 -1066 1 l-92 7 0 -50 0 -50 88 -7 c113 -9 227 -32 273
-56 121 -61 148 -180 149 -654 0 -270 -9 -358 -43 -418 -44 -78 -222 -185
-382 -229 -107 -29 -384 -32 -516 -5 -541 109 -805 469 -894 1222 -22 184 -30
567 -16 752 66 861 419 1404 963 1484 351 51 777 -112 989 -378 110 -138 162
-274 222 -580 l32 -163 56 0 56 0 6 518 c4 284 10 543 13 575 l7 57 -62 0 -61
0 0 -32 c0 -51 -27 -166 -50 -213 -23 -48 -58 -69 -93 -56 -12 5 -81 48 -152
96 -157 105 -361 207 -470 234 -140 35 -360 50 -515 34z"/>
</g>
</svg>
